HIERARCHY
ROOT joint_Root
{
	OFFSET 0.0 0.0 0.0
	CHANNELS 6 Xposition Yposition Zposition Zrotation Xrotation Yrotation 
	JOINT Hips
	{
		OFFSET 4.5925 91.4895 -427.239
		CHANNELS 6 Xposition Yposition Zposition Zrotation Xrotation Yrotation 
		JOINT Spine
		{
			OFFSET 15.7357 0.0 0.0
			CHANNELS 6 Xposition Yposition Zposition Zrotation Xrotation Yrotation 
			JOINT Chest
			{
				OFFSET 8.98455 -0.406207 0.0
				CHANNELS 6 Xposition Yposition Zposition Zrotation Xrotation Yrotation 
				JOINT Neck
				{
					OFFSET 16.3773 0.0 0.0
					CHANNELS 6 Xposition Yposition Zposition Zrotation Xrotation Yrotation 
					JOINT Head
					{
						OFFSET 6.45672 0.0 0.0
						CHANNELS 6 Xposition Yposition Zposition Zrotation Xrotation Yrotation 
						End Site
						{
							OFFSET 0.0 0.0 0.0
						}
					}
				}
				JOINT Shoulder_L
				{
					OFFSET 12.9942 -0.242716 4.98039
					CHANNELS 6 Xposition Yposition Zposition Zrotation Xrotation Yrotation 
					JOINT UpperArm_L
					{
						OFFSET 5.34809 0.0 0.0
						CHANNELS 6 Xposition Yposition Zposition Zrotation Xrotation Yrotation 
						JOINT LowerArm_L
						{
							OFFSET 24.3286 1.87007e-05 0.0
							CHANNELS 6 Xposition Yposition Zposition Zrotation Xrotation Yrotation 
							JOINT Hand_L
							{
								OFFSET 22.2916 0.0 0.0
								CHANNELS 6 Xposition Yposition Zposition Zrotation Xrotation Yrotation 
								End Site
								{
									OFFSET 0.0 0.0 0.0
								}
							}
						}
					}
				}
				JOINT Shoulder_R
				{
					OFFSET 12.9945 -0.242716 -4.98039
					CHANNELS 6 Xposition Yposition Zposition Zrotation Xrotation Yrotation 
					JOINT UpperArm_R
					{
						OFFSET -5.34813 0.0 0.0
						CHANNELS 6 Xposition Yposition Zposition Zrotation Xrotation Yrotation 
						JOINT LowerArm_R
						{
							OFFSET -24.3289 0.000322201 0.0
							CHANNELS 6 Xposition Yposition Zposition Zrotation Xrotation Yrotation 
							JOINT Hand_R
							{
								OFFSET -22.2915 -0.000108084 0.0
								CHANNELS 6 Xposition Yposition Zposition Zrotation Xrotation Yrotation 
								End Site
								{
									OFFSET 0.0 0.0 0.0
								}
							}
						}
					}
				}
			}
		}
		JOINT UpperLeg_L
		{
			OFFSET -2.19248 -6.46944 0.0
			CHANNELS 6 Xposition Yposition Zposition Zrotation Xrotation Yrotation 
			JOINT LowerLeg_L
			{
				OFFSET 39.0811 0.0 -1.23785e-05
				CHANNELS 6 Xposition Yposition Zposition Zrotation Xrotation Yrotation 
				JOINT Foot_L
				{
					OFFSET 40.9854 0.0 -1.26872e-05
					CHANNELS 6 Xposition Yposition Zposition Zrotation Xrotation Yrotation 
					JOINT Toes_L
					{
						OFFSET 11.7543 0.0 0.0
						CHANNELS 6 Xposition Yposition Zposition Zrotation Xrotation Yrotation 
						End Site
						{
							OFFSET 0.0 0.0 0.0
						}
					}
				}
			}
		}
		JOINT UpperLeg_R
		{
			OFFSET -2.19251 6.46944 0.0
			CHANNELS 6 Xposition Yposition Zposition Zrotation Xrotation Yrotation 
			JOINT LowerLeg_R
			{
				OFFSET -39.0811 -0.00228153 -0.0401928
				CHANNELS 6 Xposition Yposition Zposition Zrotation Xrotation Yrotation 
				JOINT Foot_R
				{
					OFFSET -40.9854 0.0 0.0
					CHANNELS 6 Xposition Yposition Zposition Zrotation Xrotation Yrotation 
					JOINT Toes_R
					{
						OFFSET -11.7543 0.0 0.0
						CHANNELS 6 Xposition Yposition Zposition Zrotation Xrotation Yrotation 
						End Site
						{
							OFFSET 0.0 0.0 0.0
						}
					}
				}
			}
		}
	}
}
MOTION
Frames:	6
Frame Time:	0.0333333
0.000000 0.000000 0.000000 0.000000 0.000000 -0.000000 -2.262980 90.099900 0.920873 88.573400 -0.873635 13.645500 15.735700 0.000005 -0.000001 89.394400 77.289400 -89.576300 8.984550 -0.406207 -0.000000 17.653400 -0.279561 -0.321080 16.377300 -0.000001 -0.000001 6.902930 -4.286520 1.024170 6.456720 -0.000001 -0.000000 -8.445820 -3.660190 0.541718 12.994200 -0.242716 4.980390 -91.374400 7.418860 -79.474000 5.348090 -0.000007 -0.000001 -61.817100 32.612500 -19.976700 24.328600 0.000019 0.000005 13.956500 20.038300 -35.953200 22.291600 -0.000001 0.000005 10.440500 5.256590 1.258060 12.994500 -0.242716 -4.980390 88.978400 11.060400 -84.689600 -5.348130 -0.000001 -0.000004 -58.748000 35.946800 -20.278800 -24.328900 0.000322 -0.000009 5.145300 7.894120 -33.255200 -22.291500 -0.000108 -0.000004 17.205200 5.402850 -3.030310 -2.192480 -6.469440 -0.000000 -172.146000 -10.513600 2.011280 39.081100 -0.000007 -0.000012 -0.212148 0.310987 34.301300 40.985400 -0.000006 -0.000013 -0.270600 6.443640 -72.321800 11.754300 -0.000000 0.000003 -0.000231 -0.002091 -16.656100 -2.192510 6.469440 -0.000001 173.711000 20.852600 -174.920000 -39.081100 -0.002282 -0.040193 -0.292574 0.466865 32.364600 -40.985400 0.000008 0.000006 4.908890 14.857100 -73.373800 -11.754300 -0.000006 -0.000006 -0.001973 -0.028374 -17.726900
0.000000 0.000000 0.000000 0.000000 0.000000 -0.000000 -2.255770 90.098200 0.925296 88.562900 -0.936157 13.661100 15.735700 0.000005 -0.000001 89.460700 77.273300 -89.652300 8.984550 -0.406207 -0.000000 17.685900 -0.251852 -0.344775 16.377300 -0.000001 -0.000001 6.967600 -4.290630 1.004810 6.456720 -0.000001 -0.000000 -8.395390 -3.702060 0.562664 12.994200 -0.242716 4.980390 -91.379500 7.393920 -79.401000 5.348090 -0.000007 -0.000001 -61.786400 32.090200 -19.520100 24.328600 0.000019 0.000005 14.293200 19.505000 -37.344800 22.291600 -0.000001 0.000005 10.597900 5.258320 1.212000 12.994500 -0.242716 -4.980390 88.964800 11.123900 -84.649400 -5.348130 -0.000001 -0.000004 -58.722000 35.046400 -19.666500 -24.328900 0.000322 -0.000009 5.242420 7.765960 -34.182800 -22.291500 -0.000108 -0.000004 17.312200 5.403500 -3.051360 -2.192480 -6.469440 -0.000000 -172.128000 -10.527400 2.047420 39.081100 -0.000007 -0.000012 -0.212809 0.311921 34.304200 40.985400 -0.000006 -0.000013 -0.276290 6.422240 -72.340600 11.754300 -0.000000 0.000003 -0.000241 -0.002168 -16.658900 -2.192510 6.469440 -0.000001 173.704000 20.838000 -174.900000 -39.081100 -0.002282 -0.040193 -0.296351 0.472822 32.364700 -40.985400 0.000008 0.000006 4.918640 14.908300 -73.378000 -11.754300 -0.000006 -0.000006 -0.001993 -0.028628 -17.737200
0.000000 0.000000 0.000000 0.000000 0.000000 -0.000000 -2.252140 90.103100 0.914091 88.554800 -0.947023 13.633600 15.735700 0.000005 -0.000001 89.483800 77.279200 -89.676800 8.984550 -0.406207 -0.000000 17.674200 -0.241776 -0.349181 16.377300 -0.000001 -0.000001 6.996500 -4.284090 0.968861 6.456720 -0.000001 -0.000000 -8.317660 -3.754510 0.554406 12.994200 -0.242716 4.980390 -91.397100 7.421460 -79.307900 5.348090 -0.000007 -0.000001 -61.721200 31.439900 -19.329100 24.328600 0.000019 0.000005 14.654200 19.128200 -38.589800 22.291600 -0.000001 0.000005 10.635900 5.261880 1.116780 12.994500 -0.242716 -4.980390 88.951100 11.181000 -84.606200 -5.348130 -0.000001 -0.000004 -58.777000 33.968400 -19.126400 -24.328900 0.000322 -0.000009 5.466620 7.834960 -35.075500 -22.291500 -0.000108 -0.000004 17.473400 5.404700 -3.090850 -2.192480 -6.469440 -0.000000 -172.133000 -10.532000 2.002860 39.081100 -0.000007 -0.000012 -0.215165 0.315432 34.299300 40.985400 -0.000006 -0.000013 -0.273650 6.408420 -72.319600 11.754300 -0.000000 0.000003 -0.000236 -0.002124 -16.657300 -2.192510 6.469440 -0.000001 173.724000 20.843800 -174.935000 -39.081100 -0.002282 -0.040193 -0.295104 0.471177 32.347000 -40.985400 0.000008 0.000006 4.917200 14.917800 -73.355100 -11.754300 -0.000006 -0.000006 -0.002155 -0.030644 -17.819200
0.000000 0.000000 0.000000 0.000000 0.000000 -0.000000 -2.235520 90.098500 0.925202 88.533900 -0.934065 13.686500 15.735700 0.000005 -0.000001 89.475600 77.263200 -89.665100 8.984550 -0.406207 -0.000000 17.706200 -0.245347 -0.341362 16.377300 -0.000001 -0.000001 7.040680 -4.291290 0.944180 6.456720 -0.000001 -0.000000 -8.314940 -3.755570 0.506078 12.994200 -0.242716 4.980390 -91.408500 7.452580 -79.266100 5.348090 -0.000007 -0.000001 -61.831600 30.405500 -19.192000 24.328600 0.000019 0.000005 15.429800 19.195000 -40.012500 22.291600 -0.000001 0.000005 10.710700 5.259370 1.183720 12.994500 -0.242716 -4.980390 88.938400 11.187300 -84.544500 -5.348130 -0.000001 -0.000004 -58.916700 32.798900 -18.715000 -24.328900 0.000322 -0.000009 5.668200 7.863110 -35.966000 -22.291500 -0.000108 -0.000004 17.758800 5.405470 -3.115990 -2.192480 -6.469440 -0.000000 -172.111000 -10.542200 2.057160 39.081100 -0.000007 -0.000012 -0.212668 0.311445 34.327300 40.985400 -0.000006 -0.000013 -0.257880 6.407770 -72.349600 11.754300 -0.000000 0.000003 -0.000247 -0.002207 -16.660300 -2.192510 6.469440 -0.000001 173.707000 20.854300 -174.867000 -39.081100 -0.002282 -0.040193 -0.292921 0.467696 32.348800 -40.985400 0.000008 0.000006 4.907010 14.926400 -73.362300 -11.754300 -0.000006 -0.000006 -0.002060 -0.029460 -17.771000
0.000000 0.000000 0.000000 0.000000 0.000000 -0.000000 -2.221590 90.091900 0.911136 88.554000 -0.898708 13.725600 15.735700 0.000005 -0.000001 89.401700 77.250900 -89.603000 8.984550 -0.406207 -0.000000 17.730400 -0.278949 -0.359896 16.377300 -0.000001 -0.000001 7.050810 -4.283190 0.921568 6.456720 -0.000001 -0.000000 -8.318770 -3.698730 0.436404 12.994200 -0.242716 4.980390 -91.413000 7.462420 -79.246600 5.348090 -0.000007 -0.000001 -62.037700 29.128400 -19.231600 24.328600 0.000019 0.000005 16.071700 19.165400 -41.268800 22.291600 -0.000001 0.000005 11.067200 5.256460 1.261390 12.994500 -0.242716 -4.980390 88.926400 11.191300 -84.484900 -5.348130 -0.000001 -0.000004 -59.141200 31.477800 -18.363800 -24.328900 0.000322 -0.000009 5.918610 7.884370 -37.084900 -22.291500 -0.000108 -0.000004 18.026500 5.404330 -3.078680 -2.192480 -6.469440 -0.000000 -172.134000 -10.535300 2.060190 39.081100 -0.000007 -0.000012 -0.211368 0.309162 34.359900 40.985400 -0.000006 -0.000013 -0.232463 6.450280 -72.351600 11.754300 -0.000000 0.000003 -0.000224 -0.002040 -16.654200 -2.192510 6.469440 -0.000001 173.673000 20.822900 -174.855000 -39.081100 -0.002282 -0.040193 -0.296366 0.472301 32.394600 -40.985400 0.000008 0.000006 4.886020 14.875100 -73.374800 -11.754300 -0.000006 -0.000006 -0.001888 -0.027309 -17.683600
0.000000 0.000000 0.000000 0.000000 0.000000 -0.000000 -2.196720 90.089800 0.887930 88.562400 -0.888302 13.747200 15.735700 0.000005 -0.000001 89.395100 77.246500 -89.602500 8.984550 -0.406207 -0.000000 17.739200 -0.282435 -0.371403 16.377300 -0.000001 -0.000001 7.082670 -4.285370 0.882800 6.456720 -0.000001 -0.000000 -8.318350 -3.652160 0.361055 12.994200 -0.242716 4.980390 -91.422500 7.509670 -79.241600 5.348090 -0.000007 -0.000001 -62.268400 27.582500 -19.448600 24.328600 0.000019 0.000005 16.907000 19.317100 -42.578700 22.291600 -0.000001 0.000005 11.663300 5.254590 1.311120 12.994500 -0.242716 -4.980390 88.910100 11.171300 -84.391700 -5.348130 -0.000001 -0.000004 -59.308000 30.139400 -18.194800 -24.328900 0.000322 -0.000009 6.270380 7.988070 -38.337500 -22.291500 -0.000108 -0.000004 18.289500 5.403450 -3.050010 -2.192480 -6.469440 -0.000000 -172.157000 -10.547600 2.057230 39.081100 -0.000007 -0.000012 -0.211226 0.308729 34.379500 40.985400 -0.000006 -0.000013 -0.208634 6.454280 -72.350000 11.754300 -0.000000 0.000003 -0.000224 -0.002034 -16.654000 -2.192510 6.469440 -0.000001 173.654000 20.804500 -174.871000 -39.081100 -0.002282 -0.040193 -0.295127 0.469810 32.424300 -40.985400 0.000008 0.000006 4.869930 14.862900 -73.364100 -11.754300 -0.000006 -0.000006 -0.002040 -0.029218 -17.761200
